# Tiled2Unity generated file. Do not modify by hand.
# Wavefront file for 'Creditsy_mesh_0003.obj'

# Vertices (Count = 172)
v -2656 -2944 0
v -2688 -2944 0
v -2688 -2912 0
v -2656 -2912 0
v -2336 -2944 0
v -2368 -2944 0
v -2368 -2912 0
v -2336 -2912 0
v -2656 -2912 0
v -2688 -2912 0
v -2688 -2880 0
v -2656 -2880 0
v -2336 -2912 0
v -2368 -2912 0
v -2368 -2880 0
v -2336 -2880 0
v -2656 -2880 0
v -2688 -2880 0
v -2688 -2848 0
v -2656 -2848 0
v -2624 -2880 0
v -2656 -2880 0
v -2656 -2848 0
v -2624 -2848 0
v -2592 -2880 0
v -2624 -2880 0
v -2624 -2848 0
v -2592 -2848 0
v -2336 -2880 0
v -2368 -2880 0
v -2368 -2848 0
v -2336 -2848 0
v -2656 -2848 0
v -2688 -2848 0
v -2688 -2816 0
v -2656 -2816 0
v -2624 -2848 0
v -2656 -2848 0
v -2656 -2816 0
v -2624 -2816 0
v -2592 -2848 0
v -2624 -2848 0
v -2624 -2816 0
v -2592 -2816 0
v -2560 -2848 0
v -2592 -2848 0
v -2592 -2816 0
v -2560 -2816 0
v -2560 -2816 0
v -2592 -2816 0
v -2592 -2784 0
v -2560 -2784 0
v -2560 -2784 0
v -2592 -2784 0
v -2592 -2752 0
v -2560 -2752 0
v -2560 -2752 0
v -2592 -2752 0
v -2592 -2720 0
v -2560 -2720 0
v -2336 -2752 0
v -2368 -2752 0
v -2368 -2720 0
v -2336 -2720 0
v -2560 -2720 0
v -2592 -2720 0
v -2592 -2688 0
v -2560 -2688 0
v -2336 -2720 0
v -2368 -2720 0
v -2368 -2688 0
v -2336 -2688 0
v -2560 -2688 0
v -2592 -2688 0
v -2592 -2656 0
v -2560 -2656 0
v -2336 -2688 0
v -2368 -2688 0
v -2368 -2656 0
v -2336 -2656 0
v -2560 -2656 0
v -2592 -2656 0
v -2592 -2624 0
v -2560 -2624 0
v -2336 -2656 0
v -2368 -2656 0
v -2368 -2624 0
v -2336 -2624 0
v -2560 -2624 0
v -2592 -2624 0
v -2592 -2592 0
v -2560 -2592 0
v -2560 -2592 0
v -2592 -2592 0
v -2592 -2560 0
v -2560 -2560 0
v -2528 -2592 0
v -2560 -2592 0
v -2560 -2560 0
v -2528 -2560 0
v -2496 -2592 0
v -2528 -2592 0
v -2528 -2560 0
v -2496 -2560 0
v -2464 -2592 0
v -2496 -2592 0
v -2496 -2560 0
v -2464 -2560 0
v -2432 -2592 0
v -2464 -2592 0
v -2464 -2560 0
v -2432 -2560 0
v -2560 -2560 0
v -2592 -2560 0
v -2592 -2528 0
v -2560 -2528 0
v -2336 -2560 0
v -2368 -2560 0
v -2368 -2528 0
v -2336 -2528 0
v -2560 -2528 0
v -2592 -2528 0
v -2592 -2496 0
v -2560 -2496 0
v -2528 -2528 0
v -2560 -2528 0
v -2560 -2496 0
v -2528 -2496 0
v -2432 -2528 0
v -2464 -2528 0
v -2464 -2496 0
v -2432 -2496 0
v -2400 -2528 0
v -2432 -2528 0
v -2432 -2496 0
v -2400 -2496 0
v -2336 -2528 0
v -2368 -2528 0
v -2368 -2496 0
v -2336 -2496 0
v -2560 -2496 0
v -2592 -2496 0
v -2592 -2464 0
v -2560 -2464 0
v -2528 -2496 0
v -2560 -2496 0
v -2560 -2464 0
v -2528 -2464 0
v -2496 -2496 0
v -2528 -2496 0
v -2528 -2464 0
v -2496 -2464 0
v -2464 -2496 0
v -2496 -2496 0
v -2496 -2464 0
v -2464 -2464 0
v -2432 -2496 0
v -2464 -2496 0
v -2464 -2464 0
v -2432 -2464 0
v -2400 -2496 0
v -2432 -2496 0
v -2432 -2464 0
v -2400 -2464 0
v -2368 -2496 0
v -2400 -2496 0
v -2400 -2464 0
v -2368 -2464 0
v -2336 -2496 0
v -2368 -2496 0
v -2368 -2464 0
v -2336 -2464 0

# Texture cooridinates (Count = 22)
vt 0.125 0.75
vt 0.25 0.75
vt 0.25 0.875
vt 0.125 0.875
vt 0.125 0.5
vt 0.25 0.5
vt 0.25 0.625
vt 0.125 0.625
vt 0 0.5
vt 0 0.625
vt 0.375 0.25
vt 0.5 0.25
vt 0.5 0.375
vt 0.375 0.375
vt 0.25 0.25
vt 0.25 0.375
vt 0.125 0.25
vt 0.125 0.375
vt 0.375 0.5
vt 0.5 0.5
vt 0.5 0.625
vt 0.375 0.625

# Normal
vn 0 0 -1

# Mesh description
g Creditsy_mesh_0003

# Faces
f 1/1/1 2/2/1 3/3/1 4/4/1
f 5/1/1 6/2/1 7/3/1 8/4/1
f 9/1/1 10/2/1 11/3/1 12/4/1
f 13/1/1 14/2/1 15/3/1 16/4/1
f 17/1/1 18/2/1 19/3/1 20/4/1
f 21/5/1 22/6/1 23/7/1 24/8/1
f 25/9/1 26/5/1 27/8/1 28/10/1
f 29/1/1 30/2/1 31/3/1 32/4/1
f 33/1/1 34/2/1 35/3/1 36/4/1
f 37/1/1 38/2/1 39/3/1 40/4/1
f 41/1/1 42/2/1 43/3/1 44/4/1
f 45/1/1 46/2/1 47/3/1 48/4/1
f 49/1/1 50/2/1 51/3/1 52/4/1
f 53/1/1 54/2/1 55/3/1 56/4/1
f 57/1/1 58/2/1 59/3/1 60/4/1
f 61/1/1 62/2/1 63/3/1 64/4/1
f 65/1/1 66/2/1 67/3/1 68/4/1
f 69/1/1 70/2/1 71/3/1 72/4/1
f 73/1/1 74/2/1 75/3/1 76/4/1
f 77/1/1 78/2/1 79/3/1 80/4/1
f 81/1/1 82/2/1 83/3/1 84/4/1
f 85/1/1 86/2/1 87/3/1 88/4/1
f 89/1/1 90/2/1 91/3/1 92/4/1
f 93/1/1 94/2/1 95/3/1 96/4/1
f 97/11/1 98/12/1 99/13/1 100/14/1
f 101/15/1 102/11/1 103/14/1 104/16/1
f 105/15/1 106/11/1 107/14/1 108/16/1
f 109/17/1 110/15/1 111/16/1 112/18/1
f 113/1/1 114/2/1 115/3/1 116/4/1
f 117/1/1 118/2/1 119/3/1 120/4/1
f 121/1/1 122/2/1 123/3/1 124/4/1
f 125/5/1 126/6/1 127/7/1 128/8/1
f 129/19/1 130/20/1 131/21/1 132/22/1
f 133/6/1 134/19/1 135/22/1 136/7/1
f 137/1/1 138/2/1 139/3/1 140/4/1
f 141/1/1 142/2/1 143/3/1 144/4/1
f 145/1/1 146/2/1 147/3/1 148/4/1
f 149/1/1 150/2/1 151/3/1 152/4/1
f 153/1/1 154/2/1 155/3/1 156/4/1
f 157/1/1 158/2/1 159/3/1 160/4/1
f 161/1/1 162/2/1 163/3/1 164/4/1
f 165/1/1 166/2/1 167/3/1 168/4/1
f 169/1/1 170/2/1 171/3/1 172/4/1

